<?xml version="1.0" encoding="utf-8"?>
<!-- Generator: Adobe Illustrator 22.1.0, SVG Export Plug-In . SVG Version: 6.00 Build 0)  -->
<svg version="1.1" id="Layer_1" xmlns="http://www.w3.org/2000/svg" xmlns:xlink="http://www.w3.org/1999/xlink" x="0px" y="0px"
	 viewBox="0 0 119.25 47.5" enable-background="new 0 0 119.25 47.5" xml:space="preserve">
<g>
	<g>
		<path d="M100.225,6.126c-3.661-3.623-8.21-5.477-13.622-5.527c-0.073,0-0.172,0-0.241,0c-3.404,0-6.57,0.845-9.495,2.545
			c-2.936,1.697-5.245,4.037-6.946,7.026c-1.693,2.997-2.541,6.247-2.541,9.755c0,5.254,1.87,9.733,5.589,13.44
			c3.707,3.702,8.27,5.539,13.635,5.547l0,0c0.025,0,0.032,0,0.057,0c5.334,0,9.861-1.842,13.572-5.577
			c3.721-3.716,5.581-8.241,5.581-13.582C105.813,14.359,103.943,9.82,100.225,6.126z M94.376,33.312
			c-2.382,1.364-4.97,2.046-7.773,2.054c-0.028,0-0.042,0-0.073,0c-4.226,0-7.846-1.491-10.861-4.475
			c-2.991-2.977-4.488-6.63-4.488-10.966c0-2.928,0.673-5.582,2.022-7.962c1.365-2.369,3.243-4.277,5.664-5.687
			c2.411-1.404,4.954-2.107,7.664-2.107c0.031,0,0.05,0,0.073,0c2.721,0.012,5.292,0.722,7.725,2.107
			c2.438,1.41,4.346,3.275,5.683,5.617c1.348,2.337,2.026,4.965,2.026,7.861c0,2.905-0.678,5.552-2.026,7.927
			C98.674,30.061,96.789,31.944,94.376,33.312z"/>
	</g>
	<polygon fill="#FF5100" points="48.524,2.833 47.133,2.833 44.413,2.833 34.445,28.235 24.443,1.049 13.831,28.185 4.79,2.833 
		0.671,2.833 13.675,38.43 24.346,11.309 34.33,38.461 47.133,6.311 	"/>
	<path fill="#FF5100" d="M64.444,21.593c-1.665-1.354-3.437-2.453-5.336-3.303l-0.956-0.454l-0.914-0.408
		c-1.731-0.88-3.159-1.717-4.271-2.476c-1.127-0.788-1.681-1.928-1.681-3.418c0-1.482,0.569-2.696,1.698-3.636
		c1.136-0.925,2.523-1.391,4.143-1.391c1.053,0,1.944,0.202,2.687,0.606c0.747,0.422,1.463,1.072,2.13,1.991l0.364,0.548
		c0.098,0.069,0.234,0.246,0.412,0.508l2.992-1.925c-0.98-1.728-2.193-3.04-3.692-3.942c-1.469-0.892-3.048-1.344-4.737-1.344
		c-2.885,0-5.237,0.823-7.055,2.438c-1.83,1.634-2.741,3.717-2.741,6.263c0,2.392,0.816,4.248,2.479,5.552
		c1.666,1.316,3.439,2.388,5.325,3.231l0.624,0.303l0.608,0.245c1.819,0.911,3.376,1.811,4.667,2.696
		c1.287,0.885,1.925,2.18,1.925,3.909c0,1.973-0.638,3.602-1.956,4.901c-1.306,1.303-2.955,1.955-4.94,1.955
		c-1.768,0-3.223-0.547-4.381-1.624c-1.149-1.077-1.953-2.629-2.43-4.673l-2.277,0.696l-1.386,0.428
		c0.324,1.366,0.775,2.583,1.386,3.645c0.627,1.104,1.391,2.024,2.312,2.779c1.8,1.499,4.09,2.252,6.871,2.252
		c2.954,0,5.445-1.004,7.508-3.016c2.079-2.015,3.115-4.485,3.115-7.392C66.938,24.934,66.098,22.944,64.444,21.593z"/>
	<path fill="#FF5100" d="M94.376,33.312c-2.382,1.364-4.97,2.046-7.773,2.054c-0.028,0-0.042,0-0.073,0
		c-4.226,0-7.846-1.491-10.861-4.475c-2.991-2.977-4.488-6.63-4.488-10.966c0-2.928,0.673-5.582,2.022-7.962
		c1.365-2.369,3.243-4.277,5.664-5.687c2.411-1.404,4.954-2.107,7.664-2.107c0.031,0,0.05,0,0.073,0
		c2.721,0.012,5.292,0.722,7.725,2.107c2.438,1.41,4.346,3.275,5.683,5.617c1.348,2.337,2.026,4.965,2.026,7.861
		c0,2.905-0.678,5.552-2.026,7.927C98.674,30.061,96.789,31.944,94.376,33.312z"/>
	<path fill="#FFFFFF" d="M86.544,12.319l6.748,16.449l4.415-7.96l4.295-0.014c0.014-0.343,0.033-0.692,0.033-1.041
		c0-0.41-0.019-0.818-0.045-1.216L96.38,18.56l-2.788,5.015L86.64,6.608l-6.261,13.934l-9.184-0.018
		c0.022,0.773,0.096,1.525,0.22,2.255l10.423,0.016L86.544,12.319z"/>
	<g>
		<path d="M118.754,44.276h-12.851l6.974-7.535c2.202-2.381,3.685-4.275,4.459-5.654c0.765-1.398,1.15-2.883,1.15-4.476
			c0-2.263-0.812-4.228-2.407-5.888c-1.59-1.669-3.681-2.511-6.258-2.511c-0.959,0-1.873,0.137-2.729,0.374
			c0.012,0.256,0.018,0.514,0.018,0.766c0,0.703-0.035,1.383-0.096,2.074c0.784-0.361,1.673-0.537,2.644-0.537
			c1.699,0,3.144,0.574,4.339,1.71c1.164,1.14,1.758,2.497,1.758,4.077c0,1.239-0.327,2.426-0.983,3.545
			c-0.656,1.135-2.074,2.857-4.249,5.184L99.799,47h18.932c-0.097-0.429-0.146-0.871-0.146-1.333
			C118.585,45.19,118.639,44.722,118.754,44.276z"/>
	</g>
</g>
</svg>
